<?xml version="1.0" encoding="UTF-8"?>
<!DOCTYPE svg PUBLIC "-//W3C//DTD SVG 1.1//EN" "http://www.w3.org/Graphics/SVG/1.1/DTD/svg11.dtd">
<!-- Creator: CorelDRAW 2021 (64-Bit) -->
<svg xmlns="http://www.w3.org/2000/svg" xml:space="preserve" width="8.5in" height="11in" version="1.1" style="shape-rendering:geometricPrecision; text-rendering:geometricPrecision; image-rendering:optimizeQuality; fill-rule:evenodd; clip-rule:evenodd"
viewBox="0 0 8500 11000"
 xmlns:xlink="http://www.w3.org/1999/xlink"
 xmlns:xodm="http://www.corel.com/coreldraw/odm/2003">
 <defs>
  <style type="text/css">
   <![CDATA[
    .str0 {stroke:#1E2022;stroke-width:20.49;stroke-linecap:round;stroke-miterlimit:2.61313}
    .str1 {stroke:white;stroke-width:32.79;stroke-linecap:round;stroke-miterlimit:2.61313}
    .str2 {stroke:#1E2022;stroke-width:57.38;stroke-linecap:round;stroke-miterlimit:2.61313}
    .str3 {stroke:#1E2022;stroke-width:20.49;stroke-linecap:round;stroke-linejoin:round;stroke-miterlimit:2.61313}
    .fil2 {fill:none;fill-rule:nonzero}
    .fil4 {fill:black;fill-rule:nonzero}
    .fil0 {fill:#E7EAF3;fill-rule:nonzero}
    .fil3 {fill:#F26628;fill-rule:nonzero}
    .fil1 {fill:#F8FAFD;fill-rule:nonzero}
   ]]>
  </style>
 </defs>
 <g id="Layer_x0020_1">
  <metadata id="CorelCorpID_0Corel-Layer"/>
  <g id="shadows">
   <path class="fil0" d="M4489.78 3994.12c4.92,81.98 16.39,819.75 -250.02,920.58 299.21,17.22 400.04,-23.77 400.04,-23.77l17.22 -68.86 21.31 -68.04 20.49 -138.54 13.94 -227.89 -10.66 -219.69 -42.63 17.22 -40.99 -19.67 -93.45 -100.01 -35.25 -71.32z"/>
   <path class="fil0" d="M3737.24 3122.72c-32.79,18.85 -251.67,273.8 -246.74,455.78 58.2,47.55 181.17,118.04 181.17,118.04l51.65 -96.73 69.68 -104.11 95.09 -81.98 -23.77 -81.98 -48.37 -131.16 -78.7 -77.87z"/>
   <polygon class="fil0" points="3916.77,3353.89 3916.77,3392.42 3986.45,3353.07 4163.52,3290.77 4168.43,3241.59 3998.75,3247.32 3927.43,3286.67 "/>
   <polygon class="fil0" points="4411.9,3248.96 4819.32,3245.69 4870.14,3274.37 4901.29,3338.31 4898.01,3667.04 4786.53,3567.85 4650.45,3505.55 4539.78,3495.71 4504.53,3436.69 4430.76,3348.97 4393.05,3337.5 "/>
   <polygon class="fil0" points="4898.01,4340.05 4901.29,4662.21 4898.83,4982.74 4870.96,5049.14 4794.72,5076.19 4703.73,5068.81 4647.17,4836 4679.96,4767.14 4712.75,4459.74 4708.65,4169.54 4734.88,4158.07 "/>
  </g>
  <path class="fil1" d="M6087.47 3109.61c-448.41,-254.94 -953.37,-362.33 -1476.37,-404.96l31.15 71.32 -6.56 78.7 -25.41 58.2 -70.5 45.09 -49.19 16.39 -45.09 113.13 -33.61 161.49 222.15 -2.46 213.13 5.74 46.72 49.19 7.38 91.81 -9.84 263.96 58.2 67.22 56.56 81.15 14.76 52.46 -25.41 63.12 63.94 78.7 178.7 248.39 200.84 285.27 138.54 215.59 41.81 54.93 101.65 57.38 35.25 72.14 -6.56 80.33 -37.71 58.2 -67.22 32.79 -81.98 -8.2 -60.66 -46.72 -40.17 -111.48 -225.43 -225.43 -336.92 -372.17 3.28 204.94 0 316.43 -3.28 139.36 -40.17 51.65 -36.89 17.22 -128.7 2.46 -1054.18 -168.06 -31.15 -12.3c-12.3,-2.46 -23.77,-6.56 -34.43,-13.11l0 0 0 0c-1.64,-0.82 -3.28,-2.46 -4.1,-4.1 -4.92,-5.74 -9.84,-20.49 -14.76,-44.27l0 0c-11.48,-51.65 -22.13,-142.64 -26.23,-254.94l-1.64 -16.39 0 -31.97c-0.82,-49.19 0,-102.47 1.64,-157.39l0.82 -57.38 5.74 -48.37c4.92,-59.02 12.3,-118.86 22.13,-179.52l0 -0.82 0 -0.82c9.02,-52.46 19.67,-105.75 32.79,-158.21l0 -0.82 0 0c19.67,-78.7 46.72,-155.75 81.15,-229.53l0 0c-37.71,-16.39 -72.96,-36.07 -106.57,-59.84l0 0 -1.64 -0.82c-7.38,-4.92 -14.76,-10.66 -22.13,-16.39l-63.12 -45.91 -45.91 -53.28c-9.02,-9.84 -17.22,-18.85 -24.59,-27.87l0 0 0 0c-11.48,-13.94 -22.13,-27.87 -31.15,-43.44l-13.11 -19.67 1.64 -6.56c-0.82,-1.64 -0.82,-3.28 -0.82,-4.92 0,-14.76 3.28,-29.51 11.48,-42.63l0 0 -147.56 -177.89 -97.56 -166.43 -11.48 -82.8 21.31 -60.66 96.73 -102.47 123.78 -94.27c-589.4,29.51 -1126.34,133.62 -1427.19,462.34 -386.1,420.53 -380.37,1214.05 -439.39,1937.07 -59.02,723.02 -182.8,1378 5.74,1991.18 154.11,504.15 519.72,982.88 965.67,1187.82 706.63,-488.57 2053.48,-1206.67 3342.13,-1702.62 22.95,-20.49 45.91,-40.99 69.68,-61.48 528.74,-467.26 1233.72,-1049.28 1318.16,-1686.23 84.43,-638.59 -451.69,-1332.92 -1108.31,-1707.54z"/>
  <path class="fil2 str0" d="M4024.98 2789.08c-9.84,34.43 -14.76,69.68 -14.76,105.75 0,133.62 67.22,246.74 161.49,289.37l-12.3 115.59"/>
  <path class="fil2 str0" d="M4249.59 3411.28c58.2,13.11 121.32,16.39 127.06,-2.46 8.2,-29.51 54.1,-247.56 69.68,-323.8 20.49,-32.79 34.43,-68.86 42.63,-105.75"/>
  <path class="fil3" d="M6749.83 6236.96c-68.04,-23.77 -292.65,-319.7 -292.65,-671.38 0,-408.24 432.83,-1182.08 473.81,-1457.52 26.23,-174.61 144.28,-1718.2 1040.26,-1718.2 488.57,0 529.56,955.01 529.56,1382.1 0,997.64 -1450.96,1847.72 -1450.96,2365.8 -97.55,40.99 -197.56,73.78 -300.03,99.19z"/>
  <path class="fil2 str1" d="M6860.5 6200.07c0,-800.08 596.78,-2258.41 1122.24,-2771.58"/>
  <path class="fil4" d="M2653.54 8133.04c-45.91,-13.94 -170.51,-172.15 -170.51,-376.27 0,-196.74 54.93,-483.65 54.93,-750.07 0,-148.37 -54.93,-200.84 -54.93,-377.09 0,-280.35 266.42,-366.43 359.05,-366.43 137.72,0 210.68,117.22 210.68,179.52 0,86.89 -24.59,152.47 -24.59,248.39 0,187.72 65.58,211.5 59.02,372.99 -20.49,473 -217.23,935.33 -389.38,1040.26l-44.27 28.69z"/>
  <path class="fil3" d="M2653.54 8133.04c55.74,-48.37 -258.22,-1578.02 -530.38,-1848.54 -295.93,-294.29 -540.22,-450.04 -620.55,-546.78 -142.64,-171.33 -233.63,-817.29 -861.56,-817.29 -166.41,0 -557.43,137.72 -627.93,718.1 -22.95,191 -64.76,482.83 332,905.83 267.24,285.27 601.7,186.9 928.78,495.13 235.27,222.15 202.48,557.43 422.17,840.24 176.24,227.07 632.84,532.84 957.46,253.3z"/>
  <path class="fil2 str1" d="M2576.48 8169.93c0,-383.64 -1210.77,-2116.6 -1695.24,-2364.16"/>
  <path class="fil2 str1" d="M2653.54 8133.04c-12.3,-90.99 -63.12,-864.02 81.15,-1146.01"/>
  <path class="fil2 str2" d="M1999.37 8663.42c362.33,-517.26 3599.53,-2283.01 5544.8,-2609.27"/>
  <path class="fil2 str0" d="M3915.13 3394.06l0 -51.65c0,-54.1 44.27,-98.37 98.37,-98.37l152.48 0"/>
  <path class="fil2 str0" d="M4898.01 4340.05l0 633.67c0,54.1 -44.27,98.37 -98.37,98.37l-140.18 0"/>
  <path class="fil2 str0" d="M4413.54 3244.04l386.1 0c54.1,0 98.37,44.27 98.37,98.37l0 320.52"/>
  <polygon class="fil2 str0" points="3999.57,8060.08 3999.57,8273.22 3420.82,8273.22 3420.82,8183.04 3779.06,8018.27 "/>
  <path class="fil2 str0" d="M5254.61 7855.96c29.51,65.58 98.37,235.27 98.37,235.27l-288.55 181.98 -261.5 0 -30.33 -100.01 328.72 -251.67 153.3 -65.58z"/>
  <path class="fil2 str3" d="M4086.46 2398.06c4.1,-18.04 0,-36.89 -9.84,-52.46 -31.97,-44.27 -122.14,-33.61 -201.66,22.95 -30.33,21.31 -55.74,48.37 -75.42,79.52 -2.46,-0.82 -5.74,-1.64 -8.2,-1.64 -38.53,0 -678.76,342.66 -673.02,500.87 4.92,136.08 163.95,341.83 256.58,427.91"/>
  <path class="fil2 str3" d="M3670.03 3119.44c-65.58,-65.58 -159.85,-144.28 -182.8,-166.41 40.17,-21.31 361.51,-339.38 397.58,-375.44 38.53,-8.2 74.6,-24.59 105.75,-48.37 54.1,-38.53 88.53,-89.35 95.91,-131.16"/>
  <path class="fil2 str0" d="M3888.08 3413.73c-36.07,-144.28 -104.11,-291.83 -174.61,-298.39 -131.16,-12.3 -359.05,234.45 -350.04,304.13 5.74,46.72 154.93,213.13 308.23,277.07"/>
  <path class="fil2 str0" d="M4394.69 3331.76c59.02,35.25 109.03,93.45 149.19,168.05"/>
  <path class="fil2 str0" d="M4702.09 4167.91c22.95,331.18 -12.3,639.41 -63.12,678.76 -114.76,90.17 -1012.39,94.27 -1069.78,28.69 -54.93,-63.12 -181.98,-1466.54 590.22,-1575.56"/>
  <path class="fil2 str3" d="M4361.07 2799.74c18.85,31.15 39.35,60.66 59.84,67.22 1.64,0 2.46,0.82 4.1,1.64"/>
  <path class="fil2 str3" d="M3879.06 2583.33c-7.38,9.02 -10.66,19.67 -11.48,31.15 0,74.6 1.64,175.43 157.39,175.43 10.66,-36.07 49.19,-114.76 93.45,-150.02 8.2,3.28 28.69,12.3 53.28,22.13"/>
  <path class="fil2 str3" d="M4506.99 2967.79c35.25,-4.1 135.26,-18.85 135.26,-177.07 0,-62.3 -59.84,-107.39 -59.84,-141.82 0,-34.43 20.49,-96.73 -25.41,-141 -55.74,-54.1 -144.28,-31.15 -222.97,-31.15 -74.6,0 -115.59,-86.07 -217.23,-86.07 -10.66,0 -21.31,2.46 -31.15,8.2"/>
  <path class="fil2 str0" d="M4416.82 2875.98c23.77,-26.23 64.76,-28.69 90.99,-4.92 26.23,23.78 28.69,64.76 4.92,90.99 -6.56,6.56 -13.94,12.3 -22.95,16.39"/>
  <line class="fil2 str2" x1="5554.63" y1="5083.57" x2="4972.61" y2= "7966.63" />
  <line class="fil2 str2" x1="5853.02" y1="3600.64" x2="5614.48" y2= "4786.81" />
  <path class="fil2 str0" d="M4734.88 4152.33c114.76,132.8 507.43,591.04 725.48,781.22 0,44.27 17.22,86.89 49.19,118.04 60.66,60.66 154.11,66.4 208.22,12.3 54.1,-54.11 49.19,-147.56 -11.48,-208.22 -24.59,-24.59 -55.74,-40.99 -90.17,-47.55 -104.11,-168.05 -445.94,-668.92 -619.73,-886.97"/>
  <path class="fil2 str0" d="M4466 3533.42c212.31,-157.39 561.53,223.79 555.79,323.8 -5.74,100.01 -274.62,322.98 -366.43,322.98 -112.31,0 -370.53,-512.35 -189.36,-646.78z"/>
  <path class="fil4" d="M4656.19 4822.07c-4.1,9.84 -9.84,18.04 -17.22,24.59 -71.32,56.56 -448.41,78.7 -735.31,72.14 137.72,684.49 1090.27,2913.39 1165.69,3031.44 59.02,12.3 193.46,-45.91 214.78,-84.43 20.5,-35.26 -544.31,-2756.01 -627.93,-3043.74z"/>
  <path class="fil4" d="M3600.35 4890.93c2.46,236.09 43.44,2910.94 114.76,3149.48 65.58,32.79 237.73,40.99 295.11,16.39 51.65,-22.13 356.59,-2569.1 413.97,-3156.86 -270.51,31.15 -701.7,27.05 -823.85,-9.02z"/>
 </g>
</svg>
